<?xml version="1.0" encoding="UTF-8" standalone="no"?>
<!-- Created with Inkscape (http://www.inkscape.org/) -->

<svg
   width="41.451256mm"
   height="4.0459175mm"
   viewBox="0 0 41.451256 4.0459175"
   version="1.1"
   id="svg5"
   xmlns="http://www.w3.org/2000/svg"
   xmlns:svg="http://www.w3.org/2000/svg">
  <defs
     id="defs2" />
  <g
     id="layer1"
     transform="translate(-101.33822,-53.003394)">
    <g
       aria-label="SKDS Private Cloud"
       id="text113"
       style="font-size:5.64444px;font-family:Bayon;-inkscape-font-specification:Bayon;stroke-width:0.264583">
      <path
         d="m 102.4434,57.049312 q -0.30041,0 -0.55397,-0.15434 -0.2508,-0.154341 -0.40238,-0.410656 -0.14883,-0.259071 -0.14883,-0.567751 v -0.259071 q 0,-0.03032 0.0276,-0.03032 h 0.6339 q 0.022,0 0.022,0.03032 v 0.259071 q 0,0.184657 0.12403,0.319705 0.12402,0.132291 0.29765,0.132291 0.17639,0 0.30042,-0.135047 0.12402,-0.137804 0.12402,-0.316949 0,-0.206705 -0.2701,-0.361046 -0.0441,-0.02756 -0.11575,-0.06614 -0.0689,-0.04134 -0.16537,-0.09371 -0.0965,-0.05237 -0.18741,-0.101975 -0.091,-0.05237 -0.17639,-0.09922 -0.30868,-0.181901 -0.46026,-0.454753 -0.14883,-0.275607 -0.14883,-0.61736 0,-0.314193 0.15434,-0.567752 0.15434,-0.250802 0.40239,-0.396874 0.2508,-0.148828 0.54294,-0.148828 0.30042,0 0.55122,0.148828 0.2508,0.151584 0.39963,0.402387 0.15158,0.250802 0.15158,0.562239 v 0.46302 q 0,0.02205 -0.022,0.02205 h -0.63389 q -0.022,0 -0.022,-0.02205 l -0.006,-0.46302 q 0,-0.198438 -0.12403,-0.322461 -0.12402,-0.124023 -0.2949,-0.124023 -0.17363,0 -0.29765,0.132291 -0.12403,0.132292 -0.12403,0.314193 0,0.184657 0.0772,0.30868 0.0799,0.124023 0.28939,0.237023 0.0221,0.01102 0.10198,0.05512 0.0799,0.0441 0.17639,0.09922 0.0992,0.05237 0.17914,0.09646 0.0799,0.04134 0.0965,0.04961 0.28112,0.157096 0.44373,0.38585 0.16537,0.228754 0.16537,0.562239 0,0.322461 -0.14883,0.578776 -0.15159,0.256315 -0.40239,0.405143 -0.2508,0.148828 -0.55673,0.148828 z"
         id="path423" />
      <path
         d="m 104.60417,56.99419 h -0.63941 q -0.022,0 -0.022,-0.02756 l 0.011,-3.872284 q 0,-0.02756 0.0221,-0.02756 h 0.6339 q 0.0221,0 0.0221,0.02756 v 1.336696 l 0.8847,-1.342208 q 0.022,-0.02205 0.0413,-0.02205 h 0.64767 q 0.0248,0 0.011,0.02205 l -0.97565,1.557182 1.09416,2.326127 q 0.0138,0.02205 -0.0276,0.02205 h -0.68902 q -0.0276,0 -0.0331,-0.02205 l -0.76343,-1.659157 -0.19569,0.30868 v 1.344964 q 0,0.02756 -0.022,0.02756 z"
         id="path425" />
      <path
         d="m 107.62758,56.988678 -1.01148,0.0055 q -0.0276,0 -0.0276,-0.02756 l 0.011,-3.877796 q 0,-0.02205 0.0221,-0.02205 l 1.05558,-0.0055 q 0.31419,-0.0083 0.56775,0.143316 0.25631,0.151584 0.4079,0.410655 0.15434,0.256315 0.15434,0.567751 v 1.620572 q 0,0.325217 -0.1571,0.595312 -0.15985,0.267339 -0.42443,0.427192 -0.26459,0.157096 -0.59807,0.162608 z m 0.0496,-3.252168 -0.39412,0.0055 -0.006,2.557636 h 0.35002 q 0.20946,0 0.35278,-0.146071 0.14331,-0.146072 0.14331,-0.350022 v -1.626084 q 0,-0.179145 -0.13229,-0.311436 -0.13229,-0.135048 -0.31419,-0.129536 z"
         id="path427" />
      <path
         d="m 110.21002,57.049312 q -0.30041,0 -0.55397,-0.15434 -0.2508,-0.154341 -0.40239,-0.410656 -0.14882,-0.259071 -0.14882,-0.567751 v -0.259071 q 0,-0.03032 0.0276,-0.03032 h 0.63389 q 0.0221,0 0.0221,0.03032 v 0.259071 q 0,0.184657 0.12402,0.319705 0.12403,0.132291 0.29766,0.132291 0.17639,0 0.30041,-0.135047 0.12403,-0.137804 0.12403,-0.316949 0,-0.206705 -0.2701,-0.361046 -0.0441,-0.02756 -0.11575,-0.06614 -0.0689,-0.04134 -0.16537,-0.09371 -0.0965,-0.05237 -0.18741,-0.101975 -0.091,-0.05237 -0.17639,-0.09922 -0.30868,-0.181901 -0.46026,-0.454753 -0.14883,-0.275607 -0.14883,-0.61736 0,-0.314193 0.15434,-0.567752 0.15434,-0.250802 0.40238,-0.396874 0.25081,-0.148828 0.54295,-0.148828 0.30041,0 0.55122,0.148828 0.2508,0.151584 0.39963,0.402387 0.15158,0.250802 0.15158,0.562239 v 0.46302 q 0,0.02205 -0.022,0.02205 h -0.63389 q -0.022,0 -0.022,-0.02205 l -0.006,-0.46302 q 0,-0.198438 -0.12402,-0.322461 -0.12402,-0.124023 -0.2949,-0.124023 -0.17363,0 -0.29766,0.132291 -0.12402,0.132292 -0.12402,0.314193 0,0.184657 0.0772,0.30868 0.0799,0.124023 0.28939,0.237023 0.0221,0.01102 0.10197,0.05512 0.0799,0.0441 0.17639,0.09922 0.0992,0.05237 0.17915,0.09646 0.0799,0.04134 0.0965,0.04961 0.28112,0.157096 0.44373,0.38585 0.16536,0.228754 0.16536,0.562239 0,0.322461 -0.14883,0.578776 -0.15158,0.256315 -0.40238,0.405143 -0.2508,0.148828 -0.55673,0.148828 z"
         id="path429" />
      <path
         d="m 113.83701,56.99419 h -0.63389 q -0.0276,0 -0.0276,-0.02756 l 0.011,-3.877796 q 0,-0.02205 0.022,-0.02205 h 1.08589 q 0.51814,0 0.81856,0.316949 0.30316,0.314192 0.30316,0.857139 0,0.396875 -0.15709,0.691775 -0.15985,0.292144 -0.41341,0.451996 -0.25356,0.159852 -0.55122,0.159852 h -0.42995 v 1.422134 q 0,0.02756 -0.0276,0.02756 z m 0.45751,-3.25768 -0.42995,0.0055 v 1.118966 h 0.42995 q 0.17915,0 0.31144,-0.170877 0.13229,-0.173633 0.13229,-0.44924 0,-0.220486 -0.11851,-0.361046 -0.11851,-0.143316 -0.32522,-0.143316 z"
         id="path431" />
      <path
         d="m 116.41394,56.99419 h -0.6394 q -0.0221,0 -0.0221,-0.02756 l 0.011,-3.877796 q 0,-0.02205 0.0221,-0.02205 h 1.14101 q 0.30593,0 0.56224,0.148828 0.25632,0.148828 0.4079,0.399631 0.15434,0.250803 0.15434,0.567751 0,0.206706 -0.0634,0.374827 -0.0634,0.16812 -0.14883,0.283875 -0.0827,0.115755 -0.15158,0.170877 0.30592,0.338997 0.30592,0.796505 l 0.006,1.157551 q 0,0.02756 -0.0276,0.02756 h -0.63941 q -0.0221,0 -0.0221,-0.01654 v -1.168576 q 0,-0.203949 -0.14332,-0.352777 -0.14331,-0.148828 -0.35277,-0.148828 h -0.37207 l -0.006,1.659156 q 0,0.02756 -0.0221,0.02756 z m 0.51263,-3.252167 h -0.48506 v 0.887455 h 0.48506 q 0.17364,0 0.30868,-0.129535 0.13781,-0.129536 0.13781,-0.316949 0,-0.179144 -0.13229,-0.30868 -0.1323,-0.132291 -0.3142,-0.132291 z"
         id="path433" />
      <path
         d="m 119.1397,56.99419 h -0.63941 q -0.0276,0 -0.0276,-0.02756 l 0.006,-3.877796 q 0,-0.02205 0.0221,-0.02205 h 0.6339 q 0.022,0 0.022,0.02205 l 0.006,3.877796 q 0,0.02756 -0.022,0.02756 z"
         id="path435" />
      <path
         d="m 120.97525,56.99419 h -0.68351 q -0.0248,0 -0.0276,-0.02756 l -0.77997,-3.877796 q -0.006,-0.02205 0.022,-0.02205 h 0.63941 q 0.0221,0 0.0276,0.02205 l 0.46302,2.585198 0.452,-2.585198 q 0.006,-0.02205 0.0276,-0.02205 h 0.63114 q 0.0303,0 0.0221,0.02205 l -0.76619,3.877796 q -0.003,0.02756 -0.0276,0.02756 z"
         id="path437" />
      <path
         d="m 121.90956,56.966629 0.70004,-3.877796 q 0.006,-0.02205 0.0276,-0.02205 h 0.81855 q 0.0221,0 0.0276,0.02205 l 0.67248,3.877796 q 0.003,0.02756 -0.0221,0.02756 h -0.62563 q -0.0276,0 -0.0303,-0.02756 l -0.0606,-0.413411 h -0.76895 l -0.0606,0.413411 q -0.003,0.02756 -0.0276,0.02756 h -0.62838 q -0.0221,0 -0.0221,-0.02756 z m 1.16306,-2.601734 -0.0331,-0.209461 -0.0248,0.209461 -0.25356,1.584743 h 0.54295 z"
         id="path439" />
      <path
         d="m 125.71294,56.99419 h -0.63665 q -0.0248,0 -0.0248,-0.02756 v -3.219094 h -0.73311 q -0.0276,0 -0.0276,-0.02756 l 0.006,-0.631141 q 0,-0.02205 0.0221,-0.02205 h 2.14422 q 0.0303,0 0.0303,0.02205 v 0.631141 q 0,0.02756 -0.022,0.02756 h -0.74138 l 0.006,3.219094 q 0,0.02756 -0.022,0.02756 z"
         id="path441" />
      <path
         d="m 128.61233,56.99419 h -1.82452 q -0.022,0 -0.022,-0.02756 l 0.006,-3.877796 q 0,-0.02205 0.022,-0.02205 h 1.8135 q 0.022,0 0.022,0.02756 v 0.631141 q 0,0.02205 -0.022,0.02205 h -1.15755 v 0.881943 h 1.15755 q 0.022,0 0.022,0.02205 l 0.006,0.639409 q 0,0.02205 -0.0221,0.02205 h -1.16306 v 0.986674 h 1.16306 q 0.0221,0 0.0221,0.02756 v 0.644922 q 0,0.02205 -0.0221,0.02205 z"
         id="path443" />
      <path
         d="m 131.64126,57.049312 q -0.30593,0 -0.55949,-0.15434 -0.2508,-0.154341 -0.39963,-0.413412 -0.14607,-0.261827 -0.14607,-0.581531 l 0.006,-1.761132 q 0,-0.314192 0.14332,-0.567751 0.14331,-0.256315 0.39412,-0.410655 0.25355,-0.157096 0.56224,-0.157096 0.31419,0 0.55948,0.151584 0.24804,0.151584 0.39412,0.410655 0.14882,0.256315 0.14882,0.573263 v 0.259071 q 0,0.02205 -0.022,0.02205 h -0.6339 q -0.0221,0 -0.0221,-0.02205 v -0.259071 q 0,-0.187413 -0.12127,-0.32246 -0.12126,-0.135048 -0.30316,-0.135048 -0.2012,0 -0.30869,0.137804 -0.10748,0.137803 -0.10748,0.319704 v 1.761132 q 0,0.206705 0.12127,0.338997 0.12126,0.129535 0.2949,0.129535 0.1819,0 0.30316,-0.143316 0.12127,-0.146071 0.12127,-0.325216 v -0.261827 q 0,-0.02205 0.0221,-0.02205 h 0.63941 q 0.0221,0 0.0221,0.02205 v 0.261827 q 0,0.316948 -0.14883,0.578775 -0.15159,0.259071 -0.39963,0.416168 -0.24805,0.15434 -0.55948,0.15434 z"
         id="path445" />
      <path
         d="m 135.00366,56.99419 h -1.82452 q -0.022,0 -0.022,-0.02756 l 0.006,-3.872284 q 0,-0.02756 0.0276,-0.02756 h 0.62838 q 0.0276,0 0.0276,0.02756 l -0.006,3.205314 h 1.16306 q 0.0276,0 0.0276,0.02756 v 0.639409 q 0,0.02756 -0.0276,0.02756 z"
         id="path447" />
      <path
         d="m 136.44234,57.049312 q -0.30042,0 -0.55398,-0.15434 -0.2508,-0.154341 -0.40514,-0.410656 -0.15158,-0.259071 -0.15158,-0.567751 l 0.006,-1.788692 q 0,-0.314193 0.15158,-0.564995 0.14883,-0.253559 0.40239,-0.405143 0.25356,-0.15434 0.55122,-0.15434 0.30868,0 0.55397,0.151584 0.24804,0.151584 0.39687,0.407899 0.15159,0.253559 0.15159,0.564995 l 0.006,1.788692 q 0,0.30868 -0.14883,0.564995 -0.15158,0.259071 -0.40239,0.413412 -0.2508,0.15434 -0.55672,0.15434 z m 0,-0.680751 q 0.17087,0 0.29765,-0.137803 0.12678,-0.14056 0.12678,-0.314193 l -0.006,-1.788692 q 0,-0.187413 -0.11851,-0.316949 -0.11851,-0.129535 -0.30041,-0.129535 -0.17364,0 -0.29766,0.126779 -0.12402,0.12678 -0.12402,0.319705 v 1.788692 q 0,0.184657 0.12402,0.319705 0.12402,0.132291 0.29766,0.132291 z"
         id="path449" />
      <path
         d="m 139.01375,57.049312 q -0.29765,0 -0.55121,-0.15434 -0.25356,-0.154341 -0.40514,-0.413412 -0.14883,-0.261827 -0.14883,-0.570507 l 0.011,-2.82222 q 0,-0.02205 0.0221,-0.02205 h 0.6339 q 0.0221,0 0.0221,0.02205 v 2.82222 q 0,0.190169 0.12126,0.325217 0.12127,0.132291 0.2949,0.132291 0.18191,0 0.30317,-0.132291 0.12127,-0.135048 0.12127,-0.325217 v -2.82222 q 0,-0.02205 0.0221,-0.02205 h 0.6339 q 0.022,0 0.022,0.02205 l 0.011,2.82222 q 0,0.311436 -0.14883,0.573263 -0.15158,0.259071 -0.40239,0.413412 -0.2508,0.151584 -0.56224,0.151584 z"
         id="path451" />
      <path
         d="m 141.60998,56.988678 -1.01148,0.0055 q -0.0276,0 -0.0276,-0.02756 l 0.011,-3.877796 q 0,-0.02205 0.022,-0.02205 l 1.05558,-0.0055 q 0.31419,-0.0083 0.56775,0.143316 0.25631,0.151584 0.4079,0.410655 0.15434,0.256315 0.15434,0.567751 v 1.620572 q 0,0.325217 -0.1571,0.595312 -0.15985,0.267339 -0.42444,0.427192 -0.26458,0.157096 -0.59806,0.162608 z m 0.0496,-3.252168 -0.39412,0.0055 -0.006,2.557636 h 0.35003 q 0.20946,0 0.35277,-0.146071 0.14332,-0.146072 0.14332,-0.350022 v -1.626084 q 0,-0.179145 -0.13229,-0.311436 -0.13229,-0.135048 -0.31419,-0.129536 z"
         id="path453" />
    </g>
  </g>
</svg>
